<svg width="116" height="35" viewBox="0 0 116 35" fill="none" xmlns="http://www.w3.org/2000/svg">
<path d="M26.9512 2.9492V10.1846L17.9674 15.2032V5.14819L24.4262 1.60143C24.6772 1.46068 24.9615 1.38517 25.2514 1.3822C25.5414 1.37924 25.8272 1.44892 26.0812 1.5845C26.3352 1.72008 26.5488 1.91696 26.7012 2.15606C26.8536 2.39516 26.9397 2.66836 26.9512 2.9492Z" fill="#0EA5EA"/>
<path opacity="0.3" d="M8.9837 2.9492V10.1846L17.9674 15.2032V5.14819L11.5087 1.60143C11.2577 1.46068 10.9734 1.38517 10.6835 1.3822C10.3935 1.37924 10.1077 1.44892 9.85366 1.5845C9.59965 1.72008 9.38609 1.91696 9.23367 2.15606C9.08125 2.39516 8.99515 2.66836 8.9837 2.9492Z" fill="#0EA5EA"/>
<path d="M25.1508 31.3549L18.8693 27.7642L18.9705 17.4742L27.7 22.4642L27.574 29.8317C27.5716 30.1194 27.4961 30.4037 27.3548 30.6569C27.2134 30.9101 27.0111 31.1236 26.7673 31.2769C26.5236 31.4301 26.2467 31.5178 25.9634 31.5315C25.6802 31.5452 25.4003 31.4843 25.1508 31.3549Z" fill="#0EA5EA"/>
<path opacity="0.3" d="M34.0675 15.7561L27.7859 12.1654L18.9705 17.4742L27.7 22.4642L33.9845 18.617C34.2313 18.469 34.4379 18.2597 34.5843 18.0094C34.7308 17.7591 34.8122 17.4764 34.8205 17.1886C34.8289 16.9008 34.7639 16.6177 34.632 16.3667C34.5 16.1157 34.3056 15.9054 34.0675 15.7561Z" fill="#0EA5EA"/>
<path opacity="0.3" d="M10.2772 31.3549L16.5587 27.7642L16.4575 17.4742L7.72794 22.4642L7.85402 29.8317C7.85639 30.1194 7.93189 30.4037 8.07322 30.6569C8.21454 30.9101 8.41689 31.1236 8.66065 31.2769C8.90441 31.4301 9.18132 31.5178 9.46453 31.5315C9.74775 31.5452 10.0277 31.4843 10.2772 31.3549Z" fill="#0EA5EA"/>
<path d="M1.36052 15.7561L7.64207 12.1654L16.4575 17.4742L7.72794 22.4642L1.44348 18.617C1.19673 18.469 0.990101 18.2597 0.843629 18.0094C0.697158 17.7591 0.615808 17.4764 0.607462 17.1886C0.599117 16.9008 0.664058 16.6177 0.795995 16.3667C0.927932 16.1157 1.12239 15.9054 1.36052 15.7561Z" fill="#0EA5EA"/>
<path d="M54.9462 14.0501C54.8581 13.6909 54.7192 13.3757 54.5294 13.1046C54.3396 12.8266 54.1023 12.5928 53.8176 12.403C53.5397 12.2064 53.2144 12.0607 52.8416 11.9658C52.4755 11.8641 52.0722 11.8133 51.6316 11.8133C50.6827 11.8133 49.8726 12.0404 49.2016 12.4945C48.5373 12.9487 48.0289 13.6028 47.6765 14.4568C47.3308 15.3109 47.1579 16.3412 47.1579 17.5478C47.1579 18.7679 47.324 19.8117 47.6561 20.6794C47.9883 21.547 48.4831 22.2113 49.1406 22.6722C49.7981 23.1331 50.6149 23.3636 51.591 23.3636C52.4518 23.3636 53.1669 23.2382 53.7363 22.9874C54.3125 22.7366 54.7429 22.3807 55.0276 21.9198C55.3123 21.4589 55.4546 20.9166 55.4546 20.293L56.4307 20.3947H51.6723V16.3683H60.9044V19.2559C60.9044 21.1539 60.5011 22.7773 59.6945 24.1262C58.8946 25.4683 57.7898 26.4986 56.3799 27.2171C54.9767 27.9288 53.3669 28.2847 51.5503 28.2847C49.5236 28.2847 47.7442 27.8543 46.2123 26.9934C44.6804 26.1326 43.484 24.9057 42.6232 23.3128C41.7691 21.7198 41.3421 19.8253 41.3421 17.6291C41.3421 15.9074 41.603 14.3823 42.125 13.0537C42.6537 11.7252 43.3857 10.6033 44.3212 9.68826C45.2566 8.7664 46.3377 8.07162 47.5646 7.60391C48.7915 7.12943 50.1065 6.89219 51.5096 6.89219C52.7433 6.89219 53.8888 7.06842 54.9462 7.4209C56.0104 7.76659 56.9492 8.26141 57.7627 8.90536C58.5828 9.54253 59.2437 10.2983 59.7453 11.1727C60.2469 12.0471 60.5519 13.0063 60.6604 14.0501H54.9462ZM71.105 28.2847C69.4375 28.2847 68.0005 27.9661 66.794 27.3289C65.5942 26.685 64.669 25.7631 64.0182 24.5634C63.3743 23.3568 63.0523 21.913 63.0523 20.232C63.0523 18.6187 63.3777 17.2089 64.0284 16.0023C64.6791 14.7958 65.5976 13.857 66.7838 13.1859C67.97 12.5148 69.3697 12.1793 70.983 12.1793C72.1624 12.1793 73.23 12.3623 74.1858 12.7284C75.1415 13.0944 75.9583 13.6265 76.6361 14.3247C77.314 15.0161 77.8359 15.8566 78.2019 16.8462C78.568 17.8358 78.751 18.9509 78.751 20.1913V21.4928H64.8011V18.4018H73.5859C73.5791 17.9545 73.4639 17.5613 73.2402 17.2224C73.0233 16.8767 72.7284 16.609 72.3556 16.4192C71.9896 16.2226 71.5727 16.1243 71.105 16.1243C70.6509 16.1243 70.234 16.2226 69.8544 16.4192C69.4748 16.609 69.1698 16.8733 68.9393 17.2122C68.7156 17.5512 68.597 17.9477 68.5835 18.4018V21.7368C68.5835 22.2384 68.6885 22.6858 68.8986 23.0789C69.1088 23.4721 69.4104 23.7805 69.8036 24.0042C70.1967 24.2278 70.6712 24.3397 71.227 24.3397C71.6134 24.3397 71.9659 24.2855 72.2844 24.177C72.6098 24.0686 72.8877 23.9126 73.1182 23.7093C73.3486 23.4992 73.5181 23.2484 73.6266 22.9569H78.751C78.5748 24.0414 78.1579 24.9836 77.5004 25.7835C76.8429 26.5765 75.9719 27.1934 74.8873 27.634C73.8096 28.0678 72.5488 28.2847 71.105 28.2847ZM86.6537 19.2152V28H81.0412V12.3827H86.369V15.3516H86.5317C86.8706 14.3619 87.4671 13.5858 88.3212 13.0232C89.182 12.4606 90.1852 12.1793 91.3308 12.1793C92.4357 12.1793 93.3948 12.4335 94.2082 12.9419C95.0284 13.4435 95.6622 14.1349 96.1095 15.0161C96.5637 15.8972 96.7874 16.9038 96.7806 18.0358V28H91.1681V19.2152C91.1749 18.4425 90.9783 17.8358 90.5784 17.3953C90.1852 16.9547 89.6362 16.7344 88.9312 16.7344C88.4703 16.7344 88.067 16.836 87.7213 17.0394C87.3824 17.236 87.1214 17.5207 86.9384 17.8935C86.7554 18.2595 86.6605 18.7001 86.6537 19.2152ZM99.7139 28V24.9091L106.547 16.7344V16.653H99.9579V12.3827H113.176V15.799L106.953 23.6483V23.7296H113.42V28H99.7139Z" fill="#4A576A"/>
</svg>
